<svg width="94" height="94" viewBox="0 0 94 94" fill="none" xmlns="http://www.w3.org/2000/svg">
<g filter="url(#filter0_f_83_352)">
<circle cx="47" cy="47" r="32" fill="url(#paint0_linear_83_352)" fill-opacity="0.5"/>
</g>
<circle cx="47" cy="47" r="32" fill="url(#paint1_linear_83_352)" fill-opacity="0.9"/>
<path d="M40.9834 57.8167V40.8833C40.9834 40.2167 41.1834 39.5667 41.5501 39.0167L46.1001 32.25C46.8167 31.1667 48.6001 30.4 50.1167 30.9667C51.7501 31.5167 52.8334 33.35 52.4834 34.9833L51.6167 40.4333C51.5501 40.9333 51.6834 41.3833 51.9667 41.7333C52.2501 42.05 52.6667 42.25 53.1167 42.25H59.9667C61.2834 42.25 62.4167 42.7833 63.0834 43.7167C63.7167 44.6167 63.8334 45.7833 63.4167 46.9667L59.3167 59.45C58.8001 61.5167 56.5501 63.2 54.3167 63.2H47.8167C46.7001 63.2 45.1334 62.8167 44.4167 62.1L42.2834 60.45C41.4667 59.8333 40.9834 58.85 40.9834 57.8167Z" fill="white"/>
<path d="M35.6835 37.6333H33.9668C31.3835 37.6333 30.3335 38.6333 30.3335 41.1V57.8667C30.3335 60.3333 31.3835 61.3333 33.9668 61.3333H35.6835C38.2668 61.3333 39.3168 60.3333 39.3168 57.8667V41.1C39.3168 38.6333 38.2668 37.6333 35.6835 37.6333Z" fill="white"/>
<defs>
<filter id="filter0_f_83_352" x="0" y="0" width="94" height="94" filterUnits="userSpaceOnUse" color-interpolation-filters="sRGB">
<feFlood flood-opacity="0" result="BackgroundImageFix"/>
<feBlend mode="normal" in="SourceGraphic" in2="BackgroundImageFix" result="shape"/>
<feGaussianBlur stdDeviation="7.5" result="effect1_foregroundBlur_83_352"/>
</filter>
<linearGradient id="paint0_linear_83_352" x1="47" y1="15" x2="47" y2="79" gradientUnits="userSpaceOnUse">
<stop stop-color="#E01839"/>
<stop offset="1" stop-color="#E01839"/>
</linearGradient>
<linearGradient id="paint1_linear_83_352" x1="47" y1="15" x2="47" y2="79" gradientUnits="userSpaceOnUse">
<stop stop-color="#E01839"/>
<stop offset="1" stop-color="#E01839"/>
</linearGradient>
</defs>
</svg>
