<svg width="94" height="94" viewBox="0 0 94 94" fill="none" xmlns="http://www.w3.org/2000/svg">
<g filter="url(#filter0_f_83_320)">
<circle cx="47" cy="47" r="32" fill="url(#paint0_linear_83_320)" fill-opacity="0.5"/>
</g>
<circle cx="47" cy="47" r="32" fill="url(#paint1_linear_83_320)" fill-opacity="0.9"/>
<path d="M38.1999 42.1906L32.428 47L38.1999 51.8094C38.3913 51.9662 38.5498 52.1595 38.6662 52.3779C38.7826 52.5963 38.8545 52.8356 38.878 53.082C38.9014 53.3284 38.8759 53.5769 38.8028 53.8134C38.7297 54.0498 38.6105 54.2695 38.4521 54.4596C38.2937 54.6498 38.0992 54.8067 37.8799 54.9213C37.6605 55.036 37.4207 55.106 37.1741 55.1275C36.9276 55.149 36.6792 55.1214 36.4433 55.0465C36.2075 54.9715 35.9888 54.8505 35.7999 54.6906L28.2999 48.4406C28.0887 48.2647 27.9187 48.0444 27.8021 47.7954C27.6855 47.5465 27.625 47.2749 27.625 47C27.625 46.7251 27.6855 46.4535 27.8021 46.2046C27.9187 45.9556 28.0887 45.7353 28.2999 45.5594L35.7999 39.3094C36.1825 38.9958 36.6735 38.8462 37.166 38.893C37.6585 38.9399 38.1125 39.1795 38.4291 39.5596C38.7457 39.9396 38.8992 40.4295 38.8563 40.9223C38.8134 41.4151 38.5775 41.871 38.1999 42.1906ZM65.6999 45.5594L58.1999 39.3094C58.011 39.1495 57.7923 39.0285 57.5565 38.9535C57.3206 38.8786 57.0723 38.851 56.8257 38.8725C56.5791 38.894 56.3393 38.964 56.1199 39.0787C55.9006 39.1933 55.7061 39.3502 55.5477 39.5404C55.3893 39.7305 55.2701 39.9502 55.197 40.1866C55.1239 40.4231 55.0984 40.6716 55.1218 40.918C55.1453 41.1644 55.2173 41.4037 55.3336 41.6221C55.45 41.8405 55.6085 42.0338 55.7999 42.1906L61.5718 47L55.7999 51.8094C55.6085 51.9662 55.45 52.1595 55.3336 52.3779C55.2173 52.5963 55.1453 52.8356 55.1218 53.082C55.0984 53.3284 55.1239 53.5769 55.197 53.8134C55.2701 54.0498 55.3893 54.2695 55.5477 54.4596C55.7061 54.6498 55.9006 54.8067 56.1199 54.9213C56.3393 55.036 56.5791 55.106 56.8257 55.1275C57.0723 55.149 57.3206 55.1214 57.5565 55.0465C57.7923 54.9715 58.011 54.8505 58.1999 54.6906L65.6999 48.4406C65.9111 48.2647 66.0811 48.0444 66.1977 47.7954C66.3144 47.5465 66.3748 47.2749 66.3748 47C66.3748 46.7251 66.3144 46.4535 66.1977 46.2046C66.0811 45.9556 65.9111 45.7353 65.6999 45.5594ZM52.6405 31.4875C52.4091 31.4033 52.1633 31.3656 51.9173 31.3764C51.6712 31.3872 51.4297 31.4464 51.2066 31.5506C50.9834 31.6548 50.783 31.8019 50.6167 31.9836C50.4504 32.1652 50.3215 32.3779 50.2374 32.6094L40.2374 60.1094C40.0679 60.5766 40.0909 61.0921 40.3012 61.5424C40.5116 61.9927 40.8922 62.3411 41.3593 62.5109C41.5644 62.5867 41.7813 62.6253 41.9999 62.625C42.3849 62.6251 42.7605 62.5066 43.0758 62.2858C43.3912 62.065 43.6309 61.7524 43.7624 61.3906L53.7624 33.8906C53.8466 33.6592 53.8843 33.4134 53.8735 33.1674C53.8627 32.9213 53.8035 32.6798 53.6993 32.4567C53.5951 32.2335 53.448 32.033 53.2663 31.8668C53.0847 31.7005 52.872 31.5716 52.6405 31.4875Z" fill="white"/>
<defs>
<filter id="filter0_f_83_320" x="0" y="0" width="94" height="94" filterUnits="userSpaceOnUse" color-interpolation-filters="sRGB">
<feFlood flood-opacity="0" result="BackgroundImageFix"/>
<feBlend mode="normal" in="SourceGraphic" in2="BackgroundImageFix" result="shape"/>
<feGaussianBlur stdDeviation="7.5" result="effect1_foregroundBlur_83_320"/>
</filter>
<linearGradient id="paint0_linear_83_320" x1="47" y1="15" x2="47" y2="79" gradientUnits="userSpaceOnUse">
<stop stop-color="#E01839"/>
<stop offset="1" stop-color="#E01839"/>
</linearGradient>
<linearGradient id="paint1_linear_83_320" x1="47" y1="15" x2="47" y2="79" gradientUnits="userSpaceOnUse">
<stop stop-color="#E01839"/>
<stop offset="1" stop-color="#E01839"/>
</linearGradient>
</defs>
</svg>
