<svg width="94" height="94" viewBox="0 0 94 94" fill="none" xmlns="http://www.w3.org/2000/svg">
<g filter="url(#filter0_f_83_342)">
<circle cx="47" cy="47" r="32" fill="url(#paint0_linear_83_342)" fill-opacity="0.5"/>
</g>
<circle cx="47" cy="47" r="32" fill="url(#paint1_linear_83_342)" fill-opacity="0.9"/>
<path d="M46.915 51.2332C41.1651 51.2332 36.3135 52.1728 36.3135 55.799C36.3135 59.4268 41.1964 60.3333 46.915 60.3333C52.665 60.3333 57.5166 59.3938 57.5166 55.7675C57.5166 52.1398 52.6337 51.2332 46.915 51.2332Z" fill="white"/>
<path opacity="0.7" d="M46.9149 47.7784C50.8084 47.7784 53.9304 44.6384 53.9304 40.7225C53.9304 36.8051 50.8084 33.6667 46.9149 33.6667C43.0214 33.6667 39.8994 36.8051 39.8994 40.7225C39.8994 44.6384 43.0214 47.7784 46.9149 47.7784Z" fill="white"/>
<path opacity="0.7" d="M62.1466 42.3654C63.1539 38.403 60.2006 34.8443 56.4399 34.8443C56.031 34.8443 55.64 34.8893 55.258 34.9659C55.2072 34.9779 55.1505 35.0034 55.1207 35.0484C55.0864 35.1055 55.1117 35.182 55.149 35.2315C56.2787 36.8255 56.9279 38.7662 56.9279 40.8495C56.9279 42.8457 56.3325 44.7069 55.2878 46.2513C55.1804 46.4104 55.2759 46.6251 55.4654 46.6581C55.7281 46.7046 55.9967 46.7286 56.2713 46.7361C59.0097 46.8082 61.4676 45.0356 62.1466 42.3654Z" fill="white"/>
<path d="M65.0152 51.6949C64.5138 50.6202 63.3035 49.8833 61.4634 49.5216C60.5949 49.3084 58.2445 49.0082 56.0582 49.0488C56.0253 49.0533 56.0074 49.0758 56.0045 49.0908C56 49.1118 56.0089 49.1478 56.0522 49.1703C57.0625 49.6732 60.968 51.86 60.477 56.4724C60.4561 56.672 60.6158 56.8446 60.8143 56.8146C61.7753 56.6765 64.2481 56.1421 65.0152 54.4776C65.439 53.5981 65.439 52.5759 65.0152 51.6949Z" fill="white"/>
<path opacity="0.7" d="M38.7411 34.9663C38.3606 34.8883 37.9681 34.8447 37.5592 34.8447C33.7985 34.8447 30.8452 38.4034 31.854 42.3659C32.5315 45.036 34.9894 46.8086 37.7278 46.7366C38.0024 46.7291 38.2725 46.7036 38.5337 46.6585C38.7232 46.6255 38.8187 46.4109 38.7113 46.2518C37.6667 44.7058 37.0712 42.8462 37.0712 40.85C37.0712 38.7652 37.7219 36.8245 38.8516 35.232C38.8874 35.1825 38.9143 35.1059 38.8784 35.0489C38.8486 35.0023 38.7934 34.9783 38.7411 34.9663Z" fill="white"/>
<path d="M32.5358 49.5211C30.6957 49.8828 29.4869 50.6198 28.9855 51.6945C28.5602 52.5755 28.5602 53.5976 28.9855 54.4787C29.7526 56.1417 32.2254 56.6775 33.1864 56.8141C33.3849 56.8441 33.5431 56.673 33.5222 56.4719C33.0312 51.8611 36.9367 49.6742 37.9485 49.1714C37.9903 49.1474 37.9992 49.1129 37.9947 49.0903C37.9917 49.0753 37.9753 49.0528 37.9425 49.0498C35.7547 49.0078 33.4058 49.308 32.5358 49.5211Z" fill="white"/>
<defs>
<filter id="filter0_f_83_342" x="0" y="0" width="94" height="94" filterUnits="userSpaceOnUse" color-interpolation-filters="sRGB">
<feFlood flood-opacity="0" result="BackgroundImageFix"/>
<feBlend mode="normal" in="SourceGraphic" in2="BackgroundImageFix" result="shape"/>
<feGaussianBlur stdDeviation="7.5" result="effect1_foregroundBlur_83_342"/>
</filter>
<linearGradient id="paint0_linear_83_342" x1="47" y1="15" x2="47" y2="79" gradientUnits="userSpaceOnUse">
<stop stop-color="#E01839"/>
<stop offset="1" stop-color="#E01839"/>
</linearGradient>
<linearGradient id="paint1_linear_83_342" x1="47" y1="15" x2="47" y2="79" gradientUnits="userSpaceOnUse">
<stop stop-color="#E01839"/>
<stop offset="1" stop-color="#E01839"/>
</linearGradient>
</defs>
</svg>
